<svg width="24" height="24" viewBox="0 0 24 24" fill="none" xmlns="http://www.w3.org/2000/svg">
<path d="M6.43001 20.8457C4.68942 20.8457 3.19767 20.2492 1.95473 19.0563C0.711799 17.8633 0.090332 16.3966 0.090332 14.656C0.090332 13.2194 0.495499 11.9235 1.30583 10.7682C2.11615 9.61296 3.20427 8.84765 4.57021 8.47228C5.05752 7.09765 5.84901 5.94565 6.94468 5.0163C8.04033 4.08695 9.28381 3.50163 10.6751 3.26033V11.4897L10.2561 11.0957C9.9934 10.8583 9.68607 10.7397 9.33408 10.7397C8.98208 10.7397 8.67474 10.871 8.41206 11.1337C8.16206 11.3837 8.03706 11.692 8.03706 12.0587C8.03706 12.4254 8.16206 12.7337 8.41206 12.9837L11.0153 15.581C11.2813 15.8469 11.6095 15.9799 12.0001 15.9799C12.3907 15.9799 12.7189 15.8469 12.9849 15.581L15.6072 12.9837C15.8572 12.7337 15.9853 12.4285 15.9917 12.0682C15.998 11.7079 15.8635 11.39 15.5882 11.1147C15.3382 10.8647 15.0372 10.7365 14.6852 10.7302C14.3332 10.7238 14.0258 10.8373 13.7632 11.0707L13.3251 11.4897V3.26033C15.0537 3.55635 16.523 4.35118 17.733 5.64483C18.9429 6.9385 19.6372 8.50399 19.8159 10.3413C21.0199 10.6192 22.0032 11.2443 22.7659 12.2166C23.5285 13.1889 23.9099 14.304 23.9099 15.562C23.9099 17.0359 23.3977 18.285 22.3735 19.3093C21.3492 20.3335 20.1001 20.8457 18.6262 20.8457H6.43001Z" fill="#023154"/>
</svg>
