<svg width="22" height="22" viewBox="0 0 22 22" fill="none" xmlns="http://www.w3.org/2000/svg">
<path d="M10.9044 16.3136C11.2834 16.3136 11.6057 16.1804 11.8712 15.9141C12.1368 15.6477 12.2696 15.3253 12.2696 14.9468V11.2506C12.2696 10.872 12.1366 10.5496 11.8707 10.2832C11.6049 10.0169 11.283 9.8837 10.9052 9.8837C10.5274 9.8837 10.2048 10.0169 9.9372 10.2832C9.66965 10.5496 9.53588 10.872 9.53588 11.2506V14.9468C9.53588 15.3253 9.66921 15.6477 9.93588 15.9141C10.2026 16.1804 10.5254 16.3136 10.9044 16.3136ZM10.8793 7.66305C11.2581 7.66305 11.5759 7.53621 11.8325 7.28253C12.0891 7.02883 12.2174 6.71257 12.2174 6.33375C12.2174 5.95492 12.0906 5.63719 11.8369 5.38058C11.5832 5.12396 11.2669 4.99565 10.8881 4.99565C10.5093 4.99565 10.1915 5.1225 9.93493 5.3762C9.67831 5.62988 9.55 5.94614 9.55 6.32498C9.55 6.70381 9.67684 7.02153 9.93052 7.27813C10.1842 7.53474 10.5005 7.66305 10.8793 7.66305ZM10.8837 21.7674C9.37775 21.7674 7.96182 21.4827 6.6359 20.9134C5.31 20.3441 4.15721 19.5696 3.17753 18.5899C2.19783 17.6102 1.42332 16.4574 0.854 15.1315C0.284667 13.8056 0 12.3897 0 10.8837C0 9.37347 0.285158 7.95452 0.855475 6.62685C1.42578 5.29918 2.20193 4.14418 3.18395 3.16183C4.16597 2.17946 5.31876 1.40689 6.64232 0.844125C7.96589 0.281375 9.37968 0 10.8837 0C12.3938 0 13.8127 0.281343 15.1404 0.844026C16.4681 1.40673 17.6232 2.17931 18.6056 3.16178C19.5881 4.14424 20.3607 5.29955 20.9234 6.6277C21.4861 7.95585 21.7674 9.37521 21.7674 10.8858C21.7674 12.3963 21.486 13.8114 20.9233 15.131C20.3605 16.4506 19.5879 17.6014 18.6056 18.5835C17.6232 19.5655 16.4682 20.3416 15.1406 20.912C13.8129 21.4822 12.3939 21.7674 10.8837 21.7674V21.7674Z" fill="#023154"/>
</svg>
