<svg width="25" height="25" viewBox="0 0 25 25" fill="none" xmlns="http://www.w3.org/2000/svg">
<path d="M5.20833 22.9167C4.63542 22.9167 4.14497 22.7127 3.73698 22.3047C3.32899 21.8967 3.125 21.4063 3.125 20.8333V8.33334C3.125 7.76042 3.32899 7.26997 3.73698 6.86198C4.14497 6.454 4.63542 6.25 5.20833 6.25H7.29167C7.29167 4.80903 7.79948 3.58073 8.8151 2.56511C9.83073 1.54948 11.059 1.04167 12.5 1.04167C13.941 1.04167 15.1693 1.54948 16.1849 2.56511C17.2005 3.58073 17.7083 4.80903 17.7083 6.25H19.7917C20.3646 6.25 20.855 6.454 21.263 6.86198C21.671 7.26997 21.875 7.76042 21.875 8.33334V20.8333C21.875 21.4063 21.671 21.8967 21.263 22.3047C20.855 22.7127 20.3646 22.9167 19.7917 22.9167H5.20833ZM9.375 6.25H15.625C15.625 5.38195 15.3212 4.6441 14.7135 4.03646C14.1059 3.42882 13.3681 3.12501 12.5 3.12501C11.6319 3.12501 10.8941 3.42882 10.2865 4.03646C9.67882 4.6441 9.375 5.38195 9.375 6.25ZM12.474 14.5833C13.7587 14.5833 14.9219 14.158 15.9635 13.3073C17.0052 12.4566 17.5174 11.5017 17.5 10.4427C17.5 10.1476 17.4045 9.89584 17.2135 9.6875C17.0226 9.47917 16.7795 9.375 16.4844 9.375C16.2413 9.375 16.0243 9.45313 15.8333 9.60938C15.6424 9.76563 15.5035 10 15.4167 10.3125C15.2257 10.9722 14.8524 11.5017 14.2969 11.901C13.7413 12.3004 13.1337 12.5 12.474 12.5C11.8142 12.5 11.2023 12.3004 10.638 11.901C10.0738 11.5017 9.70486 10.9722 9.53125 10.3125C9.44444 9.98264 9.31424 9.74393 9.14062 9.59636C8.96701 9.44879 8.75868 9.375 8.51562 9.375C8.22049 9.375 7.97309 9.47917 7.77344 9.6875C7.57378 9.89584 7.47396 10.1476 7.47396 10.4427C7.47396 11.5017 7.98611 12.4566 9.01042 13.3073C10.0347 14.158 11.1892 14.5833 12.474 14.5833Z" fill="#023154"/>
</svg>
