<svg width="22" height="22" viewBox="0 0 22 22" fill="none" xmlns="http://www.w3.org/2000/svg">
<rect width="21.77" height="21.77" rx="10.5" fill="#023154"/>
<path d="M7.06929 10.9056C7.06929 11.3319 7.14706 11.7549 7.30262 12.1744C7.45817 12.5938 7.69838 12.9862 8.02325 13.3515L8.04463 13.3728V12.9177C8.04463 12.6768 8.13074 12.4706 8.30296 12.2991C8.47517 12.1275 8.6835 12.0417 8.92794 12.0417C9.16972 12.0417 9.37672 12.1275 9.54894 12.2991C9.72116 12.4706 9.80727 12.6768 9.80727 12.9177V15.6472C9.80727 15.9092 9.71518 16.1313 9.53101 16.3135C9.34683 16.4956 9.12456 16.5867 8.86417 16.5867H6.12801C5.88358 16.5867 5.67591 16.5009 5.50503 16.3293C5.33413 16.1578 5.24869 15.9503 5.24869 15.7068C5.24869 15.4659 5.3348 15.2597 5.50701 15.0882C5.67923 14.9166 5.88756 14.8308 6.132 14.8308H6.86241L6.84901 14.8095C6.27705 14.2371 5.8564 13.6184 5.58708 12.9532C5.31776 12.288 5.18311 11.6055 5.18311 10.9056C5.18311 9.78025 5.47996 8.75022 6.07367 7.81546C6.66737 6.8807 7.4624 6.18089 8.45875 5.71604C8.67202 5.61114 8.88265 5.62485 9.09062 5.75718C9.29858 5.88952 9.44278 6.07984 9.52321 6.32815C9.58987 6.56539 9.57689 6.80065 9.48426 7.03391C9.39163 7.26718 9.23445 7.44733 9.01272 7.57437C8.42336 7.90954 7.95212 8.37199 7.59899 8.96171C7.24586 9.55144 7.06929 10.1994 7.06929 10.9056ZM14.7003 10.8644C14.7003 10.4381 14.6225 10.0151 14.4669 9.59565C14.3114 9.17615 14.0712 8.78378 13.7463 8.41854L13.7249 8.39724V8.85235C13.7249 9.0932 13.6395 9.2994 13.4686 9.47095C13.2977 9.64251 13.09 9.72828 12.8456 9.72828C12.6038 9.72828 12.3961 9.64184 12.2226 9.46896C12.0491 9.29609 11.9623 9.08923 11.9623 8.84838V6.12278C11.9623 5.86076 12.0544 5.63868 12.2385 5.45655C12.4227 5.27441 12.645 5.18333 12.9054 5.18333H15.6415C15.886 5.18333 16.0936 5.26845 16.2645 5.43869C16.4354 5.60891 16.5209 5.81577 16.5209 6.05927C16.5209 6.30011 16.4354 6.50697 16.2645 6.67984C16.0936 6.85273 15.886 6.93917 15.6415 6.93917H14.9071L14.9205 6.96047C15.4925 7.53022 15.9131 8.14834 16.1825 8.81481C16.4518 9.4813 16.5864 10.1645 16.5864 10.8644C16.5864 11.9898 16.2896 13.0198 15.6959 13.9545C15.1022 14.8893 14.3071 15.5891 13.3108 16.054C13.0975 16.1589 12.8869 16.1452 12.6789 16.0128C12.471 15.8805 12.3268 15.6902 12.2463 15.4419C12.1797 15.2046 12.1927 14.9694 12.2853 14.7361C12.3779 14.5028 12.5351 14.3227 12.7568 14.1956C13.3462 13.8605 13.8174 13.398 14.1706 12.8083C14.5237 12.2186 14.7003 11.5706 14.7003 10.8644Z" fill="white"/>
</svg>
