<svg width="25" height="25" viewBox="0 0 25 25" fill="none" xmlns="http://www.w3.org/2000/svg">
<path d="M13.4583 9.25C13.1632 9.25 12.9158 9.15017 12.7161 8.95052C12.5165 8.75087 12.4167 8.50347 12.4167 8.20833V4.04167C12.4167 3.74653 12.5165 3.49913 12.7161 3.29948C12.9158 3.09983 13.1632 3 13.4583 3H19.7083C20.0035 3 20.2509 3.09983 20.4505 3.29948C20.6502 3.49913 20.75 3.74653 20.75 4.04167V8.20833C20.75 8.50347 20.6502 8.75087 20.4505 8.95052C20.2509 9.15017 20.0035 9.25 19.7083 9.25H13.4583ZM3.04167 13.4167C2.74653 13.4167 2.49913 13.3168 2.29948 13.1172C2.09983 12.9175 2 12.6701 2 12.375V4.04167C2 3.74653 2.09983 3.49913 2.29948 3.29948C2.49913 3.09983 2.74653 3 3.04167 3H9.29167C9.58681 3 9.8342 3.09983 10.0339 3.29948C10.2335 3.49913 10.3333 3.74653 10.3333 4.04167V12.375C10.3333 12.6701 10.2335 12.9175 10.0339 13.1172C9.8342 13.3168 9.58681 13.4167 9.29167 13.4167H3.04167ZM13.4583 21.75C13.1632 21.75 12.9158 21.6502 12.7161 21.4505C12.5165 21.2509 12.4167 21.0035 12.4167 20.7083V12.375C12.4167 12.0799 12.5165 11.8325 12.7161 11.6328C12.9158 11.4332 13.1632 11.3333 13.4583 11.3333H19.7083C20.0035 11.3333 20.2509 11.4332 20.4505 11.6328C20.6502 11.8325 20.75 12.0799 20.75 12.375V20.7083C20.75 21.0035 20.6502 21.2509 20.4505 21.4505C20.2509 21.6502 20.0035 21.75 19.7083 21.75H13.4583ZM3.04167 21.75C2.74653 21.75 2.49913 21.6502 2.29948 21.4505C2.09983 21.2509 2 21.0035 2 20.7083V16.5417C2 16.2465 2.09983 15.9991 2.29948 15.7995C2.49913 15.5998 2.74653 15.5 3.04167 15.5H9.29167C9.58681 15.5 9.8342 15.5998 10.0339 15.7995C10.2335 15.9991 10.3333 16.2465 10.3333 16.5417V20.7083C10.3333 21.0035 10.2335 21.2509 10.0339 21.4505C9.8342 21.6502 9.58681 21.75 9.29167 21.75H3.04167Z" fill="#023154"/>
</svg>
