<svg width="25" height="25" viewBox="0 0 25 25" fill="none" xmlns="http://www.w3.org/2000/svg">
<path d="M12.5002 13.5417C12.205 13.5417 11.9576 13.4418 11.758 13.2422C11.5583 13.0425 11.4585 12.7951 11.4585 12.5C11.4585 12.2049 11.5583 11.9575 11.758 11.7578C11.9576 11.5582 12.205 11.4583 12.5002 11.4583C12.7953 11.4583 13.0427 11.5582 13.2424 11.7578C13.442 11.9575 13.5418 12.2049 13.5418 12.5C13.5418 12.7951 13.442 13.0425 13.2424 13.2422C13.0427 13.4418 12.7953 13.5417 12.5002 13.5417ZM12.5002 22.9167C11.0592 22.9167 9.70502 22.6432 8.43766 22.0964C7.1703 21.5495 6.06787 20.8073 5.13037 19.8698C4.19287 18.9323 3.45068 17.8299 2.90381 16.5625C2.35693 15.2951 2.0835 13.941 2.0835 12.5C2.0835 11.059 2.35693 9.70486 2.90381 8.4375C3.45068 7.17014 4.19287 6.06771 5.13037 5.13021C6.06787 4.19271 7.1703 3.45052 8.43766 2.90365C9.70502 2.35677 11.0592 2.08333 12.5002 2.08333C13.9411 2.08333 15.2953 2.35677 16.5627 2.90365C17.83 3.45052 18.9325 4.19271 19.87 5.13021C20.8075 6.06771 21.5496 7.17014 22.0965 8.4375C22.6434 9.70486 22.9168 11.059 22.9168 12.5C22.9168 13.941 22.6434 15.2951 22.0965 16.5625C21.5496 17.8299 20.8075 18.9323 19.87 19.8698C18.9325 20.8073 17.83 21.5495 16.5627 22.0964C15.2953 22.6432 13.9411 22.9167 12.5002 22.9167ZM12.5002 20.8333C14.8266 20.8333 16.797 20.026 18.4116 18.4115C20.0262 16.7969 20.8335 14.8264 20.8335 12.5C20.8335 10.1736 20.0262 8.20313 18.4116 6.58854C16.797 4.97396 14.8266 4.16667 12.5002 4.16667C10.1738 4.16667 8.20329 4.97396 6.5887 6.58854C4.97412 8.20313 4.16683 10.1736 4.16683 12.5C4.16683 14.8264 4.97412 16.7969 6.5887 18.4115C8.20329 20.026 10.1738 20.8333 12.5002 20.8333ZM12.5002 20.8333C10.1738 20.8333 8.20329 20.026 6.5887 18.4115C4.97412 16.7969 4.16683 14.8264 4.16683 12.5C4.16683 10.1736 4.97412 8.20313 6.5887 6.58854C8.20329 4.97396 10.1738 4.16667 12.5002 4.16667C14.8266 4.16667 16.797 4.97396 18.4116 6.58854C20.0262 8.20313 20.8335 10.1736 20.8335 12.5C20.8335 14.8264 20.0262 16.7969 18.4116 18.4115C16.797 20.026 14.8266 20.8333 12.5002 20.8333ZM14.245 14.7396C14.3491 14.6875 14.4446 14.6181 14.5314 14.5313C14.6182 14.4444 14.6877 14.349 14.7397 14.2448L17.7866 7.73438C17.8734 7.56076 17.8517 7.40885 17.7215 7.27865C17.5913 7.14844 17.4394 7.12674 17.2658 7.21354L10.7554 10.2604C10.6512 10.3125 10.5557 10.3819 10.4689 10.4688C10.3821 10.5556 10.3127 10.651 10.2606 10.7552L7.2137 17.2656C7.1269 17.4392 7.1486 17.5911 7.27881 17.7214C7.40902 17.8516 7.56093 17.8733 7.73454 17.7865L14.245 14.7396Z" fill="#023154"/>
</svg>
