<svg width="25" height="25" viewBox="0 0 25 25" fill="none" xmlns="http://www.w3.org/2000/svg">
<path d="M4.1665 19.7917V10.4167C4.1665 10.0868 4.24029 9.77431 4.38786 9.47917C4.53543 9.18403 4.73942 8.94097 4.99984 8.75L11.2498 4.0625C11.6144 3.78472 12.0311 3.64584 12.4998 3.64584C12.9686 3.64584 13.3853 3.78472 13.7498 4.0625L19.9998 8.75C20.2603 8.94097 20.4642 9.18403 20.6118 9.47917C20.7594 9.77431 20.8332 10.0868 20.8332 10.4167V19.7917C20.8332 20.3646 20.6292 20.855 20.2212 21.263C19.8132 21.671 19.3228 21.875 18.7498 21.875H15.6248C15.3297 21.875 15.0823 21.7752 14.8826 21.5755C14.683 21.3759 14.5832 21.1285 14.5832 20.8333V15.625C14.5832 15.3299 14.4833 15.0825 14.2837 14.8828C14.084 14.6832 13.8366 14.5833 13.5415 14.5833H11.4582C11.163 14.5833 10.9156 14.6832 10.716 14.8828C10.5163 15.0825 10.4165 15.3299 10.4165 15.625V20.8333C10.4165 21.1285 10.3167 21.3759 10.117 21.5755C9.91737 21.7752 9.66998 21.875 9.37484 21.875H6.24984C5.67692 21.875 5.18647 21.671 4.77848 21.263C4.3705 20.855 4.1665 20.3646 4.1665 19.7917Z" fill="#023154"/>
</svg>
