<svg width="22" height="22" viewBox="0 0 22 22" fill="none" xmlns="http://www.w3.org/2000/svg">
<rect width="21.77" height="21.77" rx="10.5" fill="#023154"/>
<path d="M11 11.6797C10.7234 11.6797 10.4872 11.5822 10.2916 11.3872C10.0959 11.1922 9.99807 10.9544 9.99807 10.6739V5.0058C9.99807 4.7281 10.0959 4.49105 10.2916 4.29463C10.4872 4.09821 10.7234 4 11 4C11.2766 4 11.5128 4.09821 11.7084 4.29463C11.9041 4.49105 12.0019 4.7281 12.0019 5.0058V10.6739C12.0019 10.9544 11.9041 11.1922 11.7084 11.3872C11.5128 11.5822 11.2766 11.6797 11 11.6797ZM11 18C10.0354 18 9.1276 17.8142 8.27656 17.4426C7.42552 17.071 6.68438 16.5684 6.05313 15.9347C5.42186 15.301 4.92186 14.557 4.55312 13.7026C4.18437 12.8483 4 11.937 4 10.9687C4 10.1359 4.13446 9.33127 4.40339 8.55487C4.67231 7.77846 5.07852 7.07173 5.62202 6.43469C5.80754 6.21624 6.04523 6.09447 6.33507 6.06936C6.62491 6.04424 6.87273 6.13214 7.07853 6.33308C7.26072 6.51313 7.35477 6.73157 7.36067 6.9884C7.36657 7.24522 7.28997 7.48145 7.13087 7.69706C6.7729 8.17156 6.49557 8.68708 6.29888 9.24362C6.10219 9.80016 6.00385 10.3752 6.00385 10.9687C6.00385 12.3618 6.48961 13.5467 7.46112 14.5234C8.43264 15.5 9.61227 15.9884 11 15.9884C12.3877 15.9884 13.5674 15.5 14.5389 14.5234C15.5104 13.5467 15.9962 12.3618 15.9962 10.9687C15.9962 10.3571 15.8926 9.76944 15.6855 9.20557C15.4784 8.64168 15.1855 8.11939 14.8068 7.63871C14.6567 7.43829 14.5905 7.2149 14.6082 6.96851C14.6259 6.72211 14.7244 6.5103 14.9038 6.33308C15.1186 6.12029 15.3716 6.03464 15.6628 6.07611C15.9541 6.11759 16.2028 6.25205 16.4092 6.47952C16.9498 7.10754 17.3501 7.8068 17.6101 8.57728C17.87 9.34775 18 10.1449 18 10.9687C18 11.937 17.8156 12.8483 17.4469 13.7026C17.0781 14.557 16.5781 15.301 15.9469 15.9347C15.3156 16.5684 14.5745 17.071 13.7234 17.4426C12.8724 17.8142 11.9646 18 11 18V18Z" fill="white"/>
</svg>
