<svg width="36" height="36" viewBox="0 0 36 36" fill="none" xmlns="http://www.w3.org/2000/svg">
<path d="M18 18C16.35 18 14.9375 17.4125 13.7625 16.2375C12.5875 15.0625 12 13.65 12 12C12 10.35 12.5875 8.9375 13.7625 7.7625C14.9375 6.5875 16.35 6 18 6C19.65 6 21.0625 6.5875 22.2375 7.7625C23.4125 8.9375 24 10.35 24 12C24 13.65 23.4125 15.0625 22.2375 16.2375C21.0625 17.4125 19.65 18 18 18ZM6 27V25.8C6 24.95 6.21875 24.1688 6.65625 23.4563C7.09375 22.7438 7.675 22.2 8.4 21.825C9.95 21.05 11.525 20.4688 13.125 20.0813C14.725 19.6938 16.35 19.5 18 19.5C19.65 19.5 21.275 19.6938 22.875 20.0813C24.475 20.4688 26.05 21.05 27.6 21.825C28.325 22.2 28.9062 22.7438 29.3438 23.4563C29.7813 24.1688 30 24.95 30 25.8V27C30 27.825 29.7063 28.5312 29.1188 29.1188C28.5312 29.7063 27.825 30 27 30H9C8.175 30 7.46875 29.7063 6.88125 29.1188C6.29375 28.5312 6 27.825 6 27Z" fill="#023154"/>
</svg>
