<svg width="25" height="25" viewBox="0 0 25 25" fill="none" xmlns="http://www.w3.org/2000/svg">
<path d="M12.5002 22.9167C11.0592 22.9167 9.70502 22.6432 8.43766 22.0964C7.1703 21.5495 6.06787 20.8073 5.13037 19.8698C4.19287 18.9323 3.45068 17.8299 2.90381 16.5625C2.35693 15.2951 2.0835 13.941 2.0835 12.5C2.0835 11.059 2.35693 9.70486 2.90381 8.4375C3.45068 7.17014 4.19287 6.06771 5.13037 5.13021C6.06787 4.19271 7.1703 3.45052 8.43766 2.90365C9.70502 2.35677 11.0592 2.08334 12.5002 2.08334C13.9411 2.08334 15.2953 2.35677 16.5627 2.90365C17.83 3.45052 18.9325 4.19271 19.87 5.13021C20.8075 6.06771 21.5496 7.17014 22.0965 8.4375C22.6434 9.70486 22.9168 11.059 22.9168 12.5C22.9168 13.941 22.6434 15.2951 22.0965 16.5625C21.5496 17.8299 20.8075 18.9323 19.87 19.8698C18.9325 20.8073 17.83 21.5495 16.5627 22.0964C15.2953 22.6432 13.9411 22.9167 12.5002 22.9167ZM12.4741 19.7917C12.7172 19.7917 12.9299 19.7005 13.1121 19.5182C13.2944 19.3359 13.3856 19.1233 13.3856 18.8802V18.4896C14.2536 18.3333 15.0002 17.9948 15.6252 17.474C16.2502 16.9531 16.5627 16.1806 16.5627 15.1563C16.5627 14.4271 16.3543 13.7587 15.9377 13.151C15.521 12.5434 14.6877 12.0139 13.4377 11.5625C12.396 11.2153 11.6755 10.9115 11.2762 10.651C10.8769 10.3906 10.6772 10.0347 10.6772 9.58334C10.6772 9.13195 10.8378 8.77604 11.159 8.51563C11.4802 8.25521 11.9446 8.125 12.5522 8.125C12.8995 8.125 13.2033 8.18577 13.4637 8.30729C13.7241 8.42882 13.9411 8.59375 14.1147 8.80209C14.2884 9.01042 14.4837 9.15365 14.7007 9.23177C14.9177 9.3099 15.1217 9.30556 15.3127 9.21875C15.5731 9.11459 15.751 8.93664 15.8465 8.6849C15.942 8.43316 15.9203 8.20313 15.7814 7.99479C15.5036 7.59549 15.1608 7.25695 14.7528 6.97917C14.3448 6.70139 13.9064 6.54514 13.4377 6.51042V6.11979C13.4377 5.87674 13.3465 5.66407 13.1642 5.48177C12.9819 5.29948 12.7693 5.20834 12.5262 5.20834C12.2831 5.20834 12.0705 5.29948 11.8882 5.48177C11.7059 5.66407 11.6147 5.87674 11.6147 6.11979V6.51042C10.7467 6.70139 10.0696 7.08334 9.5835 7.65625C9.09739 8.22917 8.85433 8.87153 8.85433 9.58334C8.85433 10.3993 9.09305 11.059 9.57048 11.5625C10.0479 12.066 10.7988 12.5 11.8231 12.8646C12.9168 13.2639 13.6764 13.6198 14.1017 13.9323C14.5271 14.2448 14.7397 14.6528 14.7397 15.1563C14.7397 15.7292 14.5358 16.1502 14.1278 16.4193C13.7198 16.6884 13.2293 16.8229 12.6564 16.8229C12.205 16.8229 11.797 16.7144 11.4325 16.4974C11.0679 16.2804 10.7641 15.9549 10.521 15.5208C10.3821 15.2778 10.1998 15.1129 9.97412 15.026C9.74843 14.9392 9.52273 14.9392 9.29704 15.026C9.05398 15.1129 8.87603 15.2778 8.76318 15.5208C8.65034 15.7639 8.646 15.9983 8.75016 16.224C9.02794 16.8142 9.4012 17.296 9.86995 17.6693C10.3387 18.0425 10.9029 18.2986 11.5627 18.4375V18.8802C11.5627 19.1233 11.6538 19.3359 11.8361 19.5182C12.0184 19.7005 12.2311 19.7917 12.4741 19.7917Z" fill="#023154"/>
</svg>
